<?xml version="1.0" standalone="no"?>
<!DOCTYPE svg PUBLIC "-//W3C//DTD SVG 20010904//EN"
 "http://www.w3.org/TR/2001/REC-SVG-20010904/DTD/svg10.dtd">
<svg version="1.0" xmlns="http://www.w3.org/2000/svg"
 width="624.000000pt" height="624.000000pt" viewBox="0 0 624.000000 624.000000"
 preserveAspectRatio="xMidYMid meet">
<metadata>
Created by potrace 1.14, written by Peter Selinger 2001-2017
</metadata>
<g transform="translate(0.000000,624.000000) scale(0.100000,-0.100000)"
fill="#000000" stroke="none">
<path d="M3109 4396 c-1 -6 -2 -132 -3 -281 -1 -168 -5 -269 -11 -268 -6 0
-53 4 -105 8 -52 4 -97 9 -100 10 -3 2 -42 6 -85 9 -44 3 -98 8 -120 11 l-40
5 55 -28 c30 -15 96 -46 145 -69 50 -23 142 -66 205 -96 219 -104 420 -197
432 -199 8 -2 12 19 12 66 l1 68 -55 25 c-30 14 -77 33 -105 44 -68 26 -82 36
-70 48 9 9 126 -34 240 -89 74 -35 238 -100 243 -96 7 8 12 5 -128 68 l-125
56 0 358 0 359 -193 1 c-129 0 -192 -3 -193 -10z"/>
<path d="M2271 3678 c-5 -13 -6 -26 -2 -30 8 -9 390 -198 399 -198 4 0 13 13
19 30 13 36 16 34 -102 87 -49 23 -134 62 -188 87 -54 25 -102 46 -108 46 -5
0 -14 -10 -18 -22z"/>
<path d="M2455 3458 c-109 -21 -165 -30 -184 -31 -11 0 -13 -25 -8 -141 9
-205 44 -295 154 -396 161 -148 468 -196 705 -110 117 43 223 122 289 217 l29
42 -63 29 c-34 17 -152 74 -262 127 -110 53 -204 97 -210 98 -5 1 -10 -4 -10
-12 0 -8 39 -34 89 -59 l89 -45 -24 -19 c-46 -36 -93 -50 -169 -51 -90 -1
-149 25 -190 87 -30 44 -29 37 -36 136 -3 41 -7 80 -9 87 -2 6 -25 22 -52 35
l-48 24 -90 -18z"/>
<path d="M3105 3358 l0 -122 165 -82 c91 -46 170 -83 175 -83 9 -1 35 66 41
107 6 37 13 42 41 31 15 -6 35 -12 43 -14 8 -2 40 -10 70 -19 152 -43 204 -56
207 -52 2 2 -13 10 -34 19 -37 15 -163 75 -526 251 -98 47 -179 86 -180 86 -1
0 -2 -55 -2 -122z"/>
<path d="M1278 2382 l-48 -3 0 -198 c0 -147 -3 -201 -12 -209 -39 -30 -87 -17
-91 25 -1 18 -15 25 -99 48 -54 14 -103 23 -108 20 -14 -9 -11 -103 4 -148 44
-122 181 -200 301 -172 95 22 157 70 195 153 21 43 22 62 24 264 l2 216 -61 4
c-33 2 -81 2 -107 0z"/>
<path d="M1715 2376 c-22 -7 -53 -20 -70 -28 -41 -22 -115 -98 -121 -125 -4
-13 -10 -23 -14 -23 -4 0 -11 -17 -15 -37 -5 -21 -10 -45 -12 -53 -15 -70 13
-177 62 -239 75 -94 138 -124 260 -125 75 0 98 4 140 24 209 102 248 380 76
538 -15 13 -51 36 -81 50 -63 30 -160 38 -225 18z m158 -230 c69 -59 43 -166
-45 -185 -85 -19 -153 65 -119 147 26 61 113 82 164 38z"/>
<path d="M2198 2382 c-26 -3 -28 -7 -29 -50 0 -26 0 -166 0 -312 l-1 -265 106
-3 105 -3 3 78 3 78 44 -77 45 -78 70 -1 c109 -1 168 0 172 3 1 2 -17 36 -42
77 -24 40 -44 76 -44 80 0 3 -9 17 -20 31 -19 25 -19 25 4 55 78 102 78 212 1
302 -56 66 -90 77 -250 83 -77 3 -152 4 -167 2z m246 -208 c39 -15 6 -64 -43
-64 -17 0 -21 6 -21 35 0 30 3 35 24 35 13 0 31 -3 40 -6z"/>
<path d="M4105 2380 l-40 -5 -2 -312 -2 -313 104 0 c77 0 105 3 106 13 1 6 1
49 1 95 1 45 4 82 7 82 3 0 30 -43 59 -95 29 -52 56 -95 60 -95 4 -1 52 -1
107 -2 l100 -1 0 317 c0 295 -1 316 -17 317 -10 0 -47 0 -83 0 -126 0 -112 13
-110 -103 1 -145 -2 -151 -39 -71 -18 37 -43 91 -56 120 l-25 51 -65 4 c-36 2
-83 1 -105 -2z"/>
<path d="M4693 2382 l-51 -3 0 -314 1 -315 36 -1 c282 -7 356 8 434 84 163
157 125 413 -76 516 -39 20 -67 25 -169 30 -68 3 -146 5 -175 3z m256 -227
c37 -19 65 -84 51 -120 -17 -46 -58 -75 -105 -75 l-42 0 2 103 c2 56 3 103 4
105 4 8 67 0 90 -13z"/>
<path d="M2759 2373 c-6 -51 -2 -616 5 -620 10 -7 352 -6 383 1 28 6 74 36 91
58 7 9 18 23 25 30 21 20 35 93 27 135 -7 40 -39 103 -52 103 -4 0 0 16 8 35
20 48 20 111 1 143 -5 6 -5 12 -2 12 7 0 -10 21 -50 61 -16 16 -46 34 -65 39
-41 11 -370 14 -371 3z m286 -184 c9 -27 -3 -38 -43 -44 -31 -3 -32 -2 -32 31
0 32 2 34 34 34 26 0 36 -5 41 -21z m23 -201 c7 -7 12 -19 12 -27 0 -32 -19
-46 -65 -47 l-45 -1 0 43 0 44 43 0 c24 0 48 -5 55 -12z"/>
<path d="M3438 2065 l-107 -315 32 -1 c37 -1 155 -1 179 0 10 1 19 13 23 31 4
16 12 33 18 37 7 5 52 8 101 9 l89 1 15 -39 15 -38 112 0 111 0 -32 93 c-17
50 -34 99 -37 107 -15 38 -79 232 -82 249 -2 11 -11 33 -19 50 -9 17 -17 34
-17 38 0 5 -6 27 -12 51 l-11 42 -136 0 -135 0 -107 -315z m249 39 c-3 -4 0
-22 8 -41 22 -53 19 -61 -17 -60 -18 1 -32 5 -31 10 2 4 6 19 9 35 8 33 22 62
31 62 3 0 4 -3 0 -6z"/>
</g>
</svg>
