<?xml version="1.0" standalone="no"?>
<!DOCTYPE svg PUBLIC "-//W3C//DTD SVG 20010904//EN"
 "http://www.w3.org/TR/2001/REC-SVG-20010904/DTD/svg10.dtd">
<svg version="1.0" xmlns="http://www.w3.org/2000/svg"
 width="700.000000pt" height="700.000000pt" viewBox="0 0 700.000000 700.000000"
 preserveAspectRatio="xMidYMid meet">
<metadata>
Created by potrace 1.14, written by Peter Selinger 2001-2017
</metadata>
<g transform="translate(0.000000,700.000000) scale(0.100000,-0.100000)"
fill="#000000" stroke="none">
<path d="M1625 6628 c-143 -44 -296 -91 -340 -104 -44 -14 -89 -27 -99 -29
-106 -24 -172 -69 -208 -139 -29 -58 -20 -125 36 -271 26 -66 51 -129 56 -140
5 -11 37 -90 71 -175 33 -85 67 -168 74 -185 33 -75 228 -571 229 -584 1 -10
-13 -15 -47 -17 -177 -10 -365 -132 -455 -294 -54 -98 -72 -166 -73 -280 -1
-161 54 -293 171 -410 136 -136 302 -191 498 -165 235 30 445 243 480 485 17
124 0 230 -58 355 -15 33 -90 218 -165 410 -75 193 -145 370 -155 395 -82 200
-133 338 -137 370 -9 63 16 80 232 151 105 35 192 64 195 64 3 1 12 4 20 7 8
3 44 15 79 27 120 40 171 103 167 208 -1 47 -12 81 -59 183 -63 135 -82 162
-139 191 -69 35 -96 32 -373 -53z"/>
<path d="M3437 5764 c-52 -18 -92 -48 -115 -87 -17 -28 -126 -309 -400 -1037
-115 -306 -268 -710 -367 -970 -51 -135 -102 -270 -113 -300 -11 -30 -36 -98
-57 -150 -20 -52 -41 -108 -47 -123 l-11 -29 -31 34 c-192 207 -464 307 -751
276 -385 -41 -705 -347 -771 -738 -13 -75 -10 -220 7 -307 79 -415 444 -715
871 -714 54 0 106 2 115 5 10 3 35 7 56 10 149 22 342 130 468 262 47 51 139
175 139 190 0 3 11 29 25 57 22 48 266 687 305 802 10 28 27 73 38 100 11 28
62 160 112 295 51 135 107 283 125 330 36 92 53 138 170 450 42 113 83 219 90
235 7 17 25 65 40 109 35 97 58 132 114 171 38 27 51 30 114 30 72 0 209 -42
922 -280 55 -18 289 -95 520 -170 231 -76 437 -147 458 -158 43 -24 94 -94
103 -143 3 -18 4 -50 2 -71 -5 -35 -82 -247 -129 -350 -10 -24 -19 -46 -19
-49 0 -3 -24 -67 -54 -143 -30 -75 -75 -190 -100 -256 -25 -66 -50 -128 -56
-137 -5 -10 -10 -23 -10 -28 0 -6 -8 -30 -18 -53 -11 -23 -34 -80 -51 -127
-18 -47 -37 -94 -41 -105 -5 -11 -18 -42 -29 -70 -55 -140 -113 -289 -142
-366 l-33 -86 -64 64 c-100 101 -209 166 -367 221 -117 41 -319 47 -458 13
-266 -64 -490 -248 -601 -494 -196 -435 -17 -941 409 -1155 60 -30 168 -69
215 -77 14 -2 41 -7 60 -10 57 -10 190 -8 264 5 128 21 240 66 351 141 168
115 274 257 352 469 19 52 39 104 44 115 5 11 79 200 164 420 86 220 160 409
165 420 9 21 101 257 275 705 58 151 110 284 116 295 8 18 107 272 289 740 34
88 66 169 71 180 4 11 18 45 29 75 11 30 25 64 30 75 5 11 20 49 33 85 14 36
46 119 72 185 27 66 50 141 53 166 8 82 -33 166 -100 207 -25 16 -549 186
-603 196 -5 1 -32 9 -60 18 -27 9 -117 38 -200 63 -82 26 -206 64 -275 85 -69
22 -186 58 -260 80 -74 23 -175 54 -225 70 -49 15 -112 35 -140 43 -27 9 -147
45 -265 82 -118 36 -271 84 -340 105 -69 21 -178 55 -242 75 -134 42 -187 48
-241 29z"/>
</g>
</svg>
